<svg width="1600" height="900" viewBox="0 0 1600 900" fill="none" xmlns="http://www.w3.org/2000/svg">
  <rect width="1600" height="900" fill="#0A0F14"/>
  <rect y="570" width="1600" height="330" fill="url(#paint0_linear)"/>
  <ellipse cx="1150" cy="180" rx="360" ry="220" fill="url(#paint1_radial)" fill-opacity="0.65"/>
  <ellipse cx="315" cy="180" rx="220" ry="140" fill="url(#paint2_radial)" fill-opacity="0.28"/>
  <path d="M210 590C260 510 382 460 612 442C906 418 1081 420 1186 452C1284 482 1361 548 1400 620L1460 620L1460 690L1382 690C1367 736 1324 770 1271 770C1218 770 1175 736 1160 690L514 690C499 736 456 770 403 770C350 770 307 736 292 690L164 690L164 634L210 590Z" fill="url(#paint3_linear)" stroke="url(#paint4_linear)" stroke-width="4"/>
  <path d="M342 770C391.706 770 432 729.706 432 680C432 630.294 391.706 590 342 590C292.294 590 252 630.294 252 680C252 729.706 292.294 770 342 770Z" fill="#0D141C" stroke="#3C4955" stroke-width="6"/>
  <path d="M1243 770C1292.71 770 1333 729.706 1333 680C1333 630.294 1292.71 590 1243 590C1193.29 590 1153 630.294 1153 680C1153 729.706 1193.29 770 1243 770Z" fill="#0D141C" stroke="#3C4955" stroke-width="6"/>
  <path d="M530 472L1010 462C1080 460 1141 486 1191 548L1208 568L357 568L408 520C441 489 483 473 530 472Z" fill="url(#paint5_linear)"/>
  <path d="M547 487L981 480C1030 480 1075 498 1116 536L1133 552L448 552L480 520C497 499 521 488 547 487Z" fill="#121C26"/>
  <rect x="370" y="340" width="320" height="4" fill="url(#paint6_linear)" fill-opacity="0.7"/>
  <rect x="910" y="312" width="400" height="4" fill="url(#paint7_linear)" fill-opacity="0.7"/>
  <text x="120" y="146" fill="#E6EDF3" font-family="Arial, sans-serif" font-size="62" font-weight="700">GERMAN GROUP</text>
  <text x="120" y="204" fill="#C6A96B" font-family="Arial, sans-serif" font-size="24" letter-spacing="6">PRECISION GARAGE</text>
  <defs>
    <linearGradient id="paint0_linear" x1="800" y1="570" x2="800" y2="900" gradientUnits="userSpaceOnUse">
      <stop stop-color="#121A23" stop-opacity="0"/>
      <stop offset="1" stop-color="#0B1016"/>
    </linearGradient>
    <radialGradient id="paint1_radial" cx="0" cy="0" r="1" gradientUnits="userSpaceOnUse" gradientTransform="translate(1150 180) rotate(90) scale(220 360)">
      <stop stop-color="#E0C48A"/>
      <stop offset="1" stop-color="#E0C48A" stop-opacity="0"/>
    </radialGradient>
    <radialGradient id="paint2_radial" cx="0" cy="0" r="1" gradientUnits="userSpaceOnUse" gradientTransform="translate(315 180) rotate(90) scale(140 220)">
      <stop stop-color="#4DA3FF"/>
      <stop offset="1" stop-color="#4DA3FF" stop-opacity="0"/>
    </radialGradient>
    <linearGradient id="paint3_linear" x1="812" y1="442" x2="812" y2="770" gradientUnits="userSpaceOnUse">
      <stop stop-color="#1E2C38"/>
      <stop offset="1" stop-color="#0D141B"/>
    </linearGradient>
    <linearGradient id="paint4_linear" x1="812" y1="442" x2="812" y2="770" gradientUnits="userSpaceOnUse">
      <stop stop-color="#425162"/>
      <stop offset="1" stop-color="#1C232A"/>
    </linearGradient>
    <linearGradient id="paint5_linear" x1="783" y1="462" x2="783" y2="568" gradientUnits="userSpaceOnUse">
      <stop stop-color="#273847"/>
      <stop offset="1" stop-color="#162029"/>
    </linearGradient>
    <linearGradient id="paint6_linear" x1="370" y1="342" x2="690" y2="342" gradientUnits="userSpaceOnUse">
      <stop stop-color="#E0C48A" stop-opacity="0"/>
      <stop offset="0.5" stop-color="#E0C48A"/>
      <stop offset="1" stop-color="#E0C48A" stop-opacity="0"/>
    </linearGradient>
    <linearGradient id="paint7_linear" x1="910" y1="314" x2="1310" y2="314" gradientUnits="userSpaceOnUse">
      <stop stop-color="#FFFFFF" stop-opacity="0"/>
      <stop offset="0.5" stop-color="#FFFFFF"/>
      <stop offset="1" stop-color="#FFFFFF" stop-opacity="0"/>
    </linearGradient>
  </defs>
</svg>
